<?xml version="1.0" encoding="utf-8"?>
<!-- Generator: Adobe Illustrator 22.0.1, SVG Export Plug-In . SVG Version: 6.00 Build 0)  -->
<svg version="1.1" id="Layer_1" xmlns="http://www.w3.org/2000/svg" xmlns:xlink="http://www.w3.org/1999/xlink" x="0px" y="0px"
	 viewBox="0 0 50 50" style="enable-background:new 0 0 50 50;" xml:space="preserve">
<style type="text/css">
	.st0{fill:#0073AC;}
	.st1{fill:#FFFFFF;}
</style>
<path id="Blue_1_" class="st0" d="M47.2,50c1.5,0,2.8-1.2,2.8-2.8V2.8C50,1.2,48.8,0,47.2,0H2.8C1.2,0,0,1.2,0,2.8v44.5
	C0,48.8,1.2,50,2.8,50H47.2z"/>
<path id="f" class="st1" d="M34.5,50V30.6H41l1-7.5h-7.5v-4.8c0-2.2,0.6-3.7,3.7-3.7l4,0V7.8c-0.7-0.1-3.1-0.3-5.8-0.3
	c-5.8,0-9.7,3.5-9.7,10v5.6h-6.5v7.5h6.5V50H34.5z"/>
</svg>
