<?xml version="1.0" encoding="utf-8"?>
<!-- Generator: Adobe Illustrator 22.0.1, SVG Export Plug-In . SVG Version: 6.00 Build 0)  -->
<svg version="1.1" id="Layer_1" xmlns="http://www.w3.org/2000/svg" xmlns:xlink="http://www.w3.org/1999/xlink" x="0px" y="0px"
	 viewBox="0 0 61 50" style="enable-background:new 0 0 61 50;" xml:space="preserve">
<style type="text/css">
	.st0{fill:#0073AB;}
</style>
<path class="st0" d="M61,5.9c-2.2,1-4.7,1.7-7.2,2c2.6-1.6,4.6-4,5.5-7c-2.4,1.4-5.1,2.5-7.9,3.1c-2.3-2.5-5.5-4-9.1-4
	c-6.9,0-12.5,5.7-12.5,12.6c0,1,0.1,2,0.3,2.9C19.6,15,10.4,9.9,4.2,2.3c-1.1,1.9-1.7,4-1.7,6.3c0,4.4,2.2,8.2,5.6,10.5
	c-2.1-0.1-4-0.6-5.7-1.6c0,0.1,0,0.1,0,0.2c0,6.1,4.3,11.2,10,12.4c-1.1,0.3-2.2,0.4-3.3,0.4c-0.8,0-1.6-0.1-2.4-0.2
	c1.6,5,6.2,8.7,11.7,8.8c-4.3,3.4-9.7,5.4-15.5,5.4c-1,0-2-0.1-3-0.2C5.5,47.9,12.1,50,19.2,50c23,0,35.6-19.2,35.6-35.9
	c0-0.5,0-1.1,0-1.6C57.2,10.7,59.3,8.5,61,5.9z"/>
</svg>
